# xmcd
#
# Track frame offsets:
# 150
# 18106
# 30015
# 42765
# 56547
# 70989
# 88372
# 102770
# 113309
# 128430
#
# Disc length: 1917 seconds
#
# Revision: 1
# Processed by: cddbd v1.5.1PL0 Copyright (c) Steve Scherf et al.
# Submitted via: CedeCatalogueitor 2.6.0.5 http://personales.ya.com/cdcatalogueitor
#
DISCID=69077b0a
DTITLE=LOS ROMEROS DE LA PUEBLA - Homenaje A Poetas Andaluces
DYEAR=1998
DGENRE=Flamenco
TTITLE0=Cantares
TTITLE1=Rimas
TTITLE2=Arbole, Arbole
TTITLE3=El Chamariz En El Chopo - El Jardon Tiene Una Fuente
TTITLE4=Cantaora
TTITLE5=La Casada Infiel
TTITLE6=Bésame Negrita
TTITLE7=Soledades
TTITLE8=La Guetarra
TTITLE9=Madrigal De Un Peine Perdido
EXTD=
EXTT0=
EXTT1=
EXTT2=
EXTT3=
EXTT4=
EXTT5=
EXTT6=
EXTT7=
EXTT8=
EXTT9=
PLAYORDER=
